<?xml version="1.0" encoding="utf-8"?>
<!-- Generator: Adobe Illustrator 18.1.1, SVG Export Plug-In . SVG Version: 6.00 Build 0)  -->
<!DOCTYPE svg PUBLIC "-//W3C//DTD SVG 1.1//EN" "http://www.w3.org/Graphics/SVG/1.1/DTD/svg11.dtd">
<svg version="1.1" id="Layer_1" xmlns="http://www.w3.org/2000/svg" xmlns:xlink="http://www.w3.org/1999/xlink" x="0px" y="0px"
	 viewBox="-414.7 334.7 74.1 16.4" enable-background="new -414.7 334.7 74.1 16.4" xml:space="preserve">
<path d="M-373.2,334.8c-2.5,0.4-4.5,2-4.5,4.5s2.1,5,4.5,4.5c9.3-1.8,12.3,7.3,23.2,7.3c9.8,0,12.1-10,5.8-16.3
	c6,6.1,1.4,12.4-4.7,12.4C-359,347.2-363.5,333.4-373.2,334.8z"/>
<path d="M-382.2,334.8c2.5,0.4,4.5,2,4.5,4.5s-2.1,5-4.5,4.5c-9.3-1.8-12.3,7.3-23.2,7.3c-9.8,0-12.1-10-5.8-16.3
	c-6,6.1-1.4,12.4,4.7,12.4C-396.4,347.2-391.9,333.4-382.2,334.8z"/>
</svg>
