<svg xmlns="http://www.w3.org/2000/svg" xmlns:xlink="http://www.w3.org/1999/xlink" version="1.1" x="0px" y="0px" width="100px" height="44.65px" viewBox="5.0 -4.465 100.0 60.2775" enable-background="new 0 0 100 44.65" xml:space="preserve">
<g id="Layer_1" display="none">
	<g display="inline">
		
			</g>
</g>
<g id="Layer_2">
	<path d="M44.582,33.879c-1.067,3.33-9.817,14.667-30.099,9.393C-5.958,37.958-3.662,2.411,14.483,0c0,0-10.051,3.065-9.511,15.521   c0.573,13.214,9.021,18.8,20.185,13.449C37.902,22.861,46.631,27.479,44.582,33.879z"/>
	<path d="M55.083,33.879c1.067,3.33,9.817,14.667,30.099,9.393c20.441-5.314,18.145-40.861,0-43.271c0,0,10.051,3.065,9.511,15.521   c-0.573,13.214-9.021,18.8-20.185,13.449C61.763,22.861,53.034,27.479,55.083,33.879z"/>
</g>
<text x="0.0" y="52.46375" font-size="2.2325" font-weight="bold" font-family="Helvetica Neue, Helvetica, Arial-Unicode, Arial, Sans-serif" fill="#000000">Created by Erika Jasso</text><text x="0.0" y="54.69625" font-size="2.2325" font-weight="bold" font-family="Helvetica Neue, Helvetica, Arial-Unicode, Arial, Sans-serif" fill="#000000">from the Noun Project</text></svg>